<svg width="14" height="15" viewBox="0 0 14 15" fill="none" xmlns="http://www.w3.org/2000/svg">
<mask id="mask0_989_10788" style="mask-type:luminance" maskUnits="userSpaceOnUse" x="0" y="0" width="14" height="15">
<path d="M13.3603 0H0V14.1579H13.3603V0Z" fill="white"/>
</mask>
<g mask="url(#mask0_989_10788)">
<mask id="mask1_989_10788" style="mask-type:luminance" maskUnits="userSpaceOnUse" x="8" y="7" width="6" height="7">
<path d="M8.77368 7.08105H13.3001V13.9976H8.77368V7.08105Z" fill="white"/>
</mask>
<g mask="url(#mask1_989_10788)">
<path d="M13.1114 12.3152L10.1425 7.17383L8.8335 9.44364L11.145 13.4489C11.3541 13.8111 11.7358 14.0172 12.1284 14.0172C12.3204 14.0172 12.5155 13.9669 12.6939 13.8641C13.2395 13.549 13.4234 12.8585 13.1114 12.3152Z" fill="white"/>
</g>
<mask id="mask2_989_10788" style="mask-type:luminance" maskUnits="userSpaceOnUse" x="0" y="1" width="12" height="13">
<path d="M0.0200195 1.69727H11.2667V13.9978H0.0200195V1.69727Z" fill="white"/>
</mask>
<g mask="url(#mask2_989_10788)">
<path d="M11.0278 4.34888L9.76907 6.52989L8.45695 8.79971L6.42939 12.3119C5.82221 13.3647 4.68847 14.0194 3.47411 14.0194C2.24027 14.0194 1.13458 13.3814 0.516102 12.3119C-0.102372 11.2452 -0.102372 9.96694 0.516102 8.89708L4.06454 2.75556C4.4322 2.11762 5.09234 1.73633 5.82766 1.73633C6.56297 1.73633 7.22312 2.11762 7.5935 2.75556L7.72164 2.97834L8.0893 3.61356L6.77757 5.88338L5.82766 4.24021L2.48525 10.0308C2.18731 10.5461 2.38516 11.0029 2.48525 11.1755C2.58573 11.3484 2.88095 11.7495 3.47683 11.7495C3.88344 11.7495 4.26512 11.5295 4.46569 11.1755L7.14795 6.52989L8.45968 4.25969L9.06141 3.21514C9.3761 2.67222 10.0697 2.48527 10.613 2.80035C11.156 3.11232 11.3425 3.80557 11.0278 4.34888Z" fill="white"/>
</g>
<mask id="mask3_989_10788" style="mask-type:luminance" maskUnits="userSpaceOnUse" x="10" y="0" width="3" height="3">
<path d="M10.3691 0.0429688H12.6623V2.39613H10.3691V0.0429688Z" fill="white"/>
</mask>
<g mask="url(#mask3_989_10788)">
<path d="M10.4751 1.65393C11.0822 3.02174 13.1071 2.18322 12.5724 0.785033C11.9624 -0.579661 9.9376 0.258473 10.4751 1.65393Z" fill="white"/>
</g>
</g>
</svg>
